<svg xmlns="http://www.w3.org/2000/svg" width="475" height="512" viewBox="0 0 475 512" fill="none"><path d="M148.944 457.736C178.506 469.614 206.834 474.843 237.421 474.843C368.496 474.843 474.843 368.496 474.843 237.421C474.843 106.347 368.496 0 237.421 0C106.347 0 0 106.347 0 237.421C0 303.852 27.3554 364.029 71.3447 407.098C49.0084 442.048 26.6721 477.024 4.33587 512C148.917 457.736 100.723 475.842 148.917 457.736" fill="#FCB316"></path><path fill-rule="evenodd" clip-rule="evenodd" d="M403.814 144.871L279.203 360.77L195.692 360.665L320.171 144.871H403.814Z" fill="white"></path><path fill-rule="evenodd" clip-rule="evenodd" d="M237.08 360.718L195.692 360.665L237.08 288.9L278.468 360.665L237.08 360.718Z" fill="white"></path><path fill-rule="evenodd" clip-rule="evenodd" d="M71.0294 144.976L195.639 360.875L279.151 360.77L154.672 144.976H71.0294Z" fill="#FFD577"></path></svg>